<svg xmlns="http://www.w3.org/2000/svg" xmlns:xlink="http://www.w3.org/1999/xlink" version="1.1" data-diagram-type="CLASS" style="width:993px;height:876px;background:#1B1B1B;" width="993px" height="876px" viewBox="0 0 993 876" zoomAndPan="magnify" preserveAspectRatio="none" contentStyleType="text/css"><?plantuml 1.2026.7beta11?><defs/><g font-family="sans-serif" lengthAdjust="spacing"><rect x="0" y="0" width="993" height="876" fill="#1B1B1B" style="stroke:none;"/><g class="title" data-source-line="1"><text x="392.198" y="22.995" fill="#FFF" font-size="14" textLength="202.405" font-weight="700">Branding by Organization</text></g><!--class Branding--><g class="entity" data-qualified-name="Branding" id="ent0001" data-source-line="9"><rect x="491.17" y="44.297" width="183.78" height="268.156" fill="#313139" style="stroke:#E7E7E7;stroke-width:0.5;" rx="2.5" ry="2.5"/><ellipse cx="547.136" cy="60.297" rx="11" ry="11" fill="#2E5233" style="stroke:#E7E7E7;stroke-width:1;"/><path d="M550.105,65.938 Q549.526,66.234 548.886,66.375 Q548.245,66.531 547.542,66.531 Q545.042,66.531 543.714,64.891 Q542.401,63.234 542.401,60.109 Q542.401,56.984 543.714,55.328 Q545.042,53.672 547.542,53.672 Q548.245,53.672 548.886,53.828 Q549.542,53.984 550.105,54.281 L550.105,57 Q549.48,56.422 548.886,56.156 Q548.292,55.875 547.667,55.875 Q546.323,55.875 545.636,56.953 Q544.948,58.016 544.948,60.109 Q544.948,62.203 545.636,63.281 Q546.323,64.344 547.667,64.344 Q548.292,64.344 548.886,64.078 Q549.48,63.797 550.105,63.219 L550.105,65.938 Z " fill="#FFF"/><text x="567.636" y="65.144" fill="#FFF" font-size="14" textLength="63.349">Branding</text><line x1="492.17" y1="76.297" x2="673.95" y2="76.297" style="stroke:#E7E7E7;stroke-width:0.5;"/><text x="497.17" y="93.292" fill="#FFF" font-size="14" textLength="69.077">+id: UUID</text><text x="497.17" y="109.589" fill="#FFF" font-size="14"> </text><text x="497.17" y="125.886" fill="#FFF" font-size="14" textLength="102.382">+name: String</text><text x="497.17" y="142.183" fill="#FFF" font-size="14"> </text><text x="497.17" y="158.479" fill="#FFF" font-size="14" textLength="112.479">+logoUrl: String</text><text x="497.17" y="174.776" fill="#FFF" font-size="14" textLength="133.39">+faviconUrl: String</text><text x="497.17" y="191.073" fill="#FFF" font-size="14"> </text><text x="497.17" y="207.37" fill="#FFF" font-size="14" textLength="154.021">+primaryColor: String</text><text x="497.17" y="223.667" fill="#FFF" font-size="14" textLength="171.78">+secondaryColor: String</text><text x="497.17" y="239.964" fill="#FFF" font-size="14" textLength="146.18">+accentColor: String</text><text x="497.17" y="256.261" fill="#FFF" font-size="14"> </text><text x="497.17" y="272.558" fill="#FFF" font-size="14" textLength="138.325">+createdAt: Instant</text><text x="497.17" y="288.854" fill="#FFF" font-size="14" textLength="142.905">+updatedAt: Instant</text><text x="497.17" y="305.151" fill="#FFF" font-size="14" textLength="106.723">+state: Integer</text></g><!--class Broker--><g class="entity" data-qualified-name="Broker" id="ent0002" data-source-line="27"><rect x="511.09" y="383.057" width="143.947" height="170.375" fill="#313139" style="stroke:#E7E7E7;stroke-width:0.5;" rx="2.5" ry="2.5"/><ellipse cx="555.612" cy="399.057" rx="11" ry="11" fill="#2E5233" style="stroke:#E7E7E7;stroke-width:1;"/><path d="M558.581,404.698 Q558.003,404.994 557.362,405.135 Q556.722,405.291 556.019,405.291 Q553.519,405.291 552.191,403.651 Q550.878,401.994 550.878,398.869 Q550.878,395.744 552.191,394.088 Q553.519,392.432 556.019,392.432 Q556.722,392.432 557.362,392.588 Q558.019,392.744 558.581,393.041 L558.581,395.76 Q557.956,395.182 557.362,394.916 Q556.769,394.635 556.144,394.635 Q554.8,394.635 554.112,395.713 Q553.425,396.776 553.425,398.869 Q553.425,400.963 554.112,402.041 Q554.8,403.104 556.144,403.104 Q556.769,403.104 557.362,402.838 Q557.956,402.557 558.581,401.979 L558.581,404.698 Z " fill="#FFF"/><text x="576.112" y="403.904" fill="#FFF" font-size="14" textLength="46.402">Broker</text><line x1="512.09" y1="415.057" x2="654.037" y2="415.057" style="stroke:#E7E7E7;stroke-width:0.5;"/><text x="517.09" y="432.052" fill="#FFF" font-size="14" textLength="69.077">+id: UUID</text><text x="517.09" y="448.349" fill="#FFF" font-size="14"> </text><text x="517.09" y="464.646" fill="#FFF" font-size="14" textLength="131.947">+brandingId: UUID</text><text x="517.09" y="480.943" fill="#FFF" font-size="14"> </text><text x="517.09" y="497.239" fill="#FFF" font-size="14" textLength="102.382">+name: String</text><text x="517.09" y="513.536" fill="#FFF" font-size="14" textLength="96.441">+code: String</text><text x="517.09" y="529.833" fill="#FFF" font-size="14"> </text><text x="517.09" y="546.13" fill="#FFF" font-size="14" textLength="108.527">+status: Status</text></g><!--class Company--><g class="entity" data-qualified-name="Company" id="ent0003" data-source-line="39"><rect x="264.29" y="374.917" width="201.554" height="186.672" fill="#313139" style="stroke:#E7E7E7;stroke-width:0.5;" rx="2.5" ry="2.5"/><ellipse cx="327.516" cy="390.917" rx="11" ry="11" fill="#2E5233" style="stroke:#E7E7E7;stroke-width:1;"/><path d="M330.484,396.558 Q329.906,396.854 329.266,396.995 Q328.625,397.151 327.922,397.151 Q325.422,397.151 324.094,395.511 Q322.781,393.854 322.781,390.729 Q322.781,387.604 324.094,385.948 Q325.422,384.292 327.922,384.292 Q328.625,384.292 329.266,384.448 Q329.922,384.604 330.484,384.901 L330.484,387.62 Q329.859,387.042 329.266,386.776 Q328.672,386.495 328.047,386.495 Q326.703,386.495 326.016,387.573 Q325.328,388.636 325.328,390.729 Q325.328,392.823 326.016,393.901 Q326.703,394.964 328.047,394.964 Q328.672,394.964 329.266,394.698 Q329.859,394.417 330.484,393.839 L330.484,396.558 Z " fill="#FFF"/><text x="348.016" y="395.764" fill="#FFF" font-size="14" textLength="66.603">Company</text><line x1="265.29" y1="406.917" x2="464.844" y2="406.917" style="stroke:#E7E7E7;stroke-width:0.5;"/><text x="270.29" y="423.912" fill="#FFF" font-size="14" textLength="69.077">+id: UUID</text><text x="270.29" y="440.209" fill="#FFF" font-size="14"> </text><text x="270.29" y="456.506" fill="#FFF" font-size="14" textLength="131.947">+brandingId: UUID</text><text x="270.29" y="472.803" fill="#FFF" font-size="14"> </text><text x="270.29" y="489.099" fill="#FFF" font-size="14" textLength="137.84">+legalName: String</text><text x="270.29" y="505.396" fill="#FFF" font-size="14" textLength="141.306">+tradeName: String</text><text x="270.29" y="521.693" fill="#FFF" font-size="14" textLength="189.554">+documentNumber: String</text><text x="270.29" y="537.99" fill="#FFF" font-size="14"> </text><text x="270.29" y="554.287" fill="#FFF" font-size="14" textLength="108.527">+status: Status</text></g><!--class BrokerCompany--><g class="entity" data-qualified-name="BrokerCompany" id="ent0004" data-source-line="52"><rect x="273.14" y="673.647" width="145.841" height="137.781" fill="#313139" style="stroke:#E7E7E7;stroke-width:0.5;" rx="2.5" ry="2.5"/><ellipse cx="288.516" cy="689.647" rx="11" ry="11" fill="#2E5233" style="stroke:#E7E7E7;stroke-width:1;"/><path d="M291.485,695.288 Q290.907,695.584 290.266,695.725 Q289.626,695.881 288.922,695.881 Q286.422,695.881 285.094,694.241 Q283.782,692.584 283.782,689.459 Q283.782,686.334 285.094,684.678 Q286.422,683.022 288.922,683.022 Q289.626,683.022 290.266,683.178 Q290.922,683.334 291.485,683.631 L291.485,686.35 Q290.86,685.772 290.266,685.506 Q289.672,685.225 289.047,685.225 Q287.704,685.225 287.016,686.303 Q286.329,687.366 286.329,689.459 Q286.329,691.553 287.016,692.631 Q287.704,693.694 289.047,693.694 Q289.672,693.694 290.266,693.428 Q290.86,693.147 291.485,692.569 L291.485,695.288 Z " fill="#FFF"/><text x="302.6" y="694.494" fill="#FFF" font-size="14" textLength="113.005">BrokerCompany</text><line x1="274.14" y1="705.647" x2="417.981" y2="705.647" style="stroke:#E7E7E7;stroke-width:0.5;"/><text x="279.14" y="722.642" fill="#FFF" font-size="14" textLength="69.077">+id: UUID</text><text x="279.14" y="738.939" fill="#FFF" font-size="14"> </text><text x="279.14" y="755.236" fill="#FFF" font-size="14" textLength="115.001">+brokerId: UUID</text><text x="279.14" y="771.533" fill="#FFF" font-size="14" textLength="133.841">+companyId: UUID</text><text x="279.14" y="787.829" fill="#FFF" font-size="14"> </text><text x="279.14" y="804.126" fill="#FFF" font-size="14" textLength="108.527">+status: Status</text></g><!--class ExecutiveMembership--><g class="entity" data-qualified-name="ExecutiveMembership" id="ent0005" data-source-line="62"><rect x="453.76" y="649.207" width="278.615" height="186.672" fill="#313139" style="stroke:#E7E7E7;stroke-width:0.5;" rx="2.5" ry="2.5"/><ellipse cx="511.257" cy="665.207" rx="11" ry="11" fill="#2E5233" style="stroke:#E7E7E7;stroke-width:1;"/><path d="M514.226,670.848 Q513.648,671.144 513.007,671.285 Q512.366,671.441 511.663,671.441 Q509.163,671.441 507.835,669.801 Q506.523,668.144 506.523,665.019 Q506.523,661.894 507.835,660.238 Q509.163,658.582 511.663,658.582 Q512.366,658.582 513.007,658.738 Q513.663,658.894 514.226,659.191 L514.226,661.91 Q513.601,661.332 513.007,661.066 Q512.413,660.785 511.788,660.785 Q510.445,660.785 509.757,661.863 Q509.07,662.926 509.07,665.019 Q509.07,667.113 509.757,668.191 Q510.445,669.254 511.788,669.254 Q512.413,669.254 513.007,668.988 Q513.601,668.707 514.226,668.129 L514.226,670.848 Z " fill="#FFF"/><text x="531.757" y="670.054" fill="#FFF" font-size="14" textLength="155.121">ExecutiveMembership</text><line x1="454.76" y1="681.207" x2="731.375" y2="681.207" style="stroke:#E7E7E7;stroke-width:0.5;"/><text x="459.76" y="698.202" fill="#FFF" font-size="14" textLength="69.077">+id: UUID</text><text x="459.76" y="714.499" fill="#FFF" font-size="14"> </text><text x="459.76" y="730.796" fill="#FFF" font-size="14" textLength="137.676">+executiveId: UUID</text><text x="459.76" y="747.093" fill="#FFF" font-size="14" textLength="266.615">+organizationType: OrganizationType</text><text x="459.76" y="763.389" fill="#FFF" font-size="14"> </text><text x="459.76" y="779.686" fill="#FFF" font-size="14" textLength="192.076">+brokerId: UUID «nullable»</text><text x="459.76" y="795.983" fill="#FFF" font-size="14" textLength="210.916">+companyId: UUID «nullable»</text><text x="459.76" y="812.28" fill="#FFF" font-size="14"> </text><text x="459.76" y="828.577" fill="#FFF" font-size="14" textLength="108.527">+status: Status</text></g><!--class OrganizationType--><g class="entity" data-qualified-name="OrganizationType" id="ent0012" data-source-line="85"><rect x="710.02" y="142.077" width="156.086" height="72.594" fill="#313139" style="stroke:#E7E7E7;stroke-width:0.5;" rx="2.5" ry="2.5"/><ellipse cx="725.02" cy="158.077" rx="11" ry="11" fill="#852D19" style="stroke:#E7E7E7;stroke-width:1;"/><path d="M729.129,164.077 L721.411,164.077 L721.411,151.686 L729.129,151.686 L729.129,153.842 L723.864,153.842 L723.864,156.514 L728.629,156.514 L728.629,158.671 L723.864,158.671 L723.864,161.921 L729.129,161.921 L729.129,164.077 Z " fill="#FFF"/><text x="739.02" y="162.924" fill="#FFF" font-size="14" textLength="124.086">OrganizationType</text><line x1="711.02" y1="174.077" x2="865.106" y2="174.077" style="stroke:#E7E7E7;stroke-width:0.5;"/><text x="716.02" y="191.072" fill="#FFF" font-size="14" textLength="58.105">BROKER</text><text x="716.02" y="207.369" fill="#FFF" font-size="14" textLength="69.918">COMPANY</text></g><g class="entity" data-qualified-name="GMN13" id="ent0014" data-source-line="92"><path d="M690.02,372.447 L690.02,564.041 L926.11,564.041 L926.11,382.447 L916.11,372.447 L690.02,372.447" style="stroke:#E7E7E7;stroke-width:0.5;" fill="#714137"/><path d="M916.11,372.447 L916.11,382.447 L926.11,382.447 L916.11,372.447" style="stroke:#E7E7E7;stroke-width:1;" fill="#714137"/><text x="696.02" y="389.514" fill="#FFF" font-size="13"> </text><text x="696.02" y="404.647" fill="#FFF" font-size="13" textLength="215.09">Branding representa la identidad</text><text x="696.02" y="419.779" fill="#FFF" font-size="13" textLength="178.229">visual de una organización.</text><text x="696.02" y="434.912" fill="#FFF" font-size="13"> </text><text x="696.02" y="450.045" fill="#FFF" font-size="13" textLength="153.937">Puede ser utilizado por:</text><text x="696.02" y="465.178" fill="#FFF" font-size="13"> </text><text x="696.02" y="480.311" fill="#FFF" font-size="13" textLength="51.911">- Broker</text><text x="696.02" y="495.443" fill="#FFF" font-size="13" textLength="70.668">- Company</text><text x="696.02" y="510.576" fill="#FFF" font-size="13"> </text><text x="696.02" y="525.709" fill="#FFF" font-size="13" textLength="157.581">Cada organización tiene</text><text x="696.02" y="540.842" fill="#FFF" font-size="13" textLength="126.934">su propio branding.</text><text x="696.02" y="555.975" fill="#FFF" font-size="13"> </text></g><g class="entity" data-qualified-name="GMN16" id="ent0017" data-source-line="108"><path d="M767.32,654.307 L767.32,830.768 L978.8,830.768 L978.8,664.307 L968.8,654.307 L767.32,654.307" style="stroke:#E7E7E7;stroke-width:0.5;" fill="#714137"/><path d="M968.8,654.307 L968.8,664.307 L978.8,664.307 L968.8,654.307" style="stroke:#E7E7E7;stroke-width:1;" fill="#714137"/><text x="773.32" y="671.374" fill="#FFF" font-size="13"> </text><text x="773.32" y="686.507" fill="#FFF" font-size="13" textLength="190.48">Cuando un Executive ingresa</text><text x="773.32" y="701.639" fill="#FFF" font-size="13" textLength="140.017">en contexto BROKER:</text><text x="773.32" y="716.772" fill="#FFF" font-size="13"> </text><text x="773.32" y="731.905" fill="#FFF" font-size="13" textLength="144.041">ExecutiveMembership</text><text x="777.452" y="747.038" fill="#FFF" font-size="13" textLength="62.804">-> Broker</text><text x="777.452" y="762.171" fill="#FFF" font-size="13" textLength="78.54">-> Branding</text><text x="773.32" y="777.303" fill="#FFF" font-size="13"> </text><text x="773.32" y="792.436" fill="#FFF" font-size="13" textLength="148.484">Este Branding controla</text><text x="773.32" y="807.569" fill="#FFF" font-size="13" textLength="120.605">el layout principal.</text><text x="773.32" y="822.702" fill="#FFF" font-size="13"> </text></g><g class="entity" data-qualified-name="GMN19" id="ent0020" data-source-line="123"><path d="M6,624.047 L6,861.039 L238.129,861.039 L238.129,634.047 L228.129,624.047 L6,624.047" style="stroke:#E7E7E7;stroke-width:0.5;" fill="#714137"/><path d="M228.129,624.047 L228.129,634.047 L238.129,634.047 L228.129,624.047" style="stroke:#E7E7E7;stroke-width:1;" fill="#714137"/><text x="12" y="641.114" fill="#FFF" font-size="13"> </text><text x="12" y="656.247" fill="#FFF" font-size="13" textLength="209.892">Company mantiene su Branding</text><text x="12" y="671.379" fill="#FFF" font-size="13" textLength="211.129">independientemente del Broker.</text><text x="12" y="686.512" fill="#FFF" font-size="13"> </text><text x="12" y="701.645" fill="#FFF" font-size="13" textLength="199.208">Dentro del portal de un Broker</text><text x="12" y="716.778" fill="#FFF" font-size="13" textLength="141.991">puede utilizarse para:</text><text x="12" y="731.911" fill="#FFF" font-size="13"> </text><text x="12" y="747.043" fill="#FFF" font-size="13" textLength="44.307">- cards</text><text x="12" y="762.176" fill="#FFF" font-size="13" textLength="43.367">- logos</text><text x="12" y="777.309" fill="#FFF" font-size="13" textLength="56.316">- badges</text><text x="12" y="792.442" fill="#FFF" font-size="13" textLength="166.702">- detalles de aseguradora</text><text x="12" y="807.575" fill="#FFF" font-size="13"> </text><text x="12" y="822.708" fill="#FFF" font-size="13" textLength="176.903">Sin reemplazar el Branding</text><text x="12" y="837.84" fill="#FFF" font-size="13" textLength="131.384">principal del Broker.</text><text x="12" y="852.973" fill="#FFF" font-size="13"> </text></g><!--reverse link Branding to Broker--><g class="link" data-entity-1="ent0001" data-entity-2="ent0002" id="lnk6" data-source-line="75" data-link-type="dependency"><path d="M583.06,317.707 C583.06,341.547 583.06,360.777 583.06,382.787" style="stroke:#E7E7E7;stroke-width:1;" fill="none" id="Branding-backto-Broker" codeLine="75"/><polygon points="583.06,312.707,579.06,321.707,583.06,317.707,587.06,321.707,583.06,312.707" fill="#E7E7E7" style="stroke:#E7E7E7;stroke-width:1;stroke-linejoin:miter;stroke-miterlimit:10;"/><text x="512.06" y="343.814" fill="#FFF" font-size="13" textLength="70.243">brandingId</text><text x="574.849" y="332.534" fill="#FFF" font-size="13">1</text><text x="559.073" y="371.871" fill="#FFF" font-size="13" textLength="23.036">0..*</text></g><!--reverse link Branding to Company--><g class="link" data-entity-1="ent0001" data-entity-2="ent0003" id="lnk7" data-source-line="76" data-link-type="dependency"><path d="M501.13,317.707 C501.13,355.267 501.13,381.037 501.13,381.037 C501.13,381.037 486.13,381.037 466.09,381.037" style="stroke:#E7E7E7;stroke-width:1;" fill="none" id="Branding-backto-Company" codeLine="76"/><polygon points="501.13,312.707,497.13,321.707,501.13,317.707,505.13,321.707,501.13,312.707" fill="#E7E7E7" style="stroke:#E7E7E7;stroke-width:1;stroke-linejoin:miter;stroke-miterlimit:10;"/><text x="430.13" y="360.464" fill="#FFF" font-size="13" textLength="70.243">brandingId</text><text x="488.438" y="332.534" fill="#FFF" font-size="13">1</text><text x="474.003" y="371.449" fill="#FFF" font-size="13" textLength="23.036">0..*</text></g><!--link Broker to BrokerCompany--><g class="link" data-entity-1="ent0002" data-entity-2="ent0004" id="lnk8" data-source-line="78" data-link-type="association"><path d="M547.08,553.717 C547.08,581.367 547.08,605.037 547.08,605.037 C547.08,605.037 370.37,605.037 370.37,605.037 C370.37,605.037 370.37,639.147 370.37,673.387" style="stroke:#E7E7E7;stroke-width:1;" fill="none" id="Broker-BrokerCompany" codeLine="78"/><text x="535.78" y="573.489" fill="#FFF" font-size="13">1</text><text x="348.693" y="662.556" fill="#FFF" font-size="13" textLength="23.036">0..*</text></g><!--link Company to BrokerCompany--><g class="link" data-entity-1="ent0003" data-entity-2="ent0004" id="lnk9" data-source-line="79" data-link-type="association"><path d="M321.76,561.877 C321.76,598.507 321.76,639.747 321.76,673.577" style="stroke:#E7E7E7;stroke-width:1;" fill="none" id="Company-BrokerCompany" codeLine="79"/><text x="310.148" y="581.691" fill="#FFF" font-size="13">1</text><text x="295.07" y="662.766" fill="#FFF" font-size="13" textLength="23.036">0..*</text></g><!--link Broker to ExecutiveMembership--><g class="link" data-entity-1="ent0002" data-entity-2="ent0005" id="lnk10" data-source-line="81" data-link-type="association"><path d="M583.06,553.907 C583.06,584.087 583.06,618.157 583.06,648.957" style="stroke:#E7E7E7;stroke-width:1;" fill="none" id="Broker-ExecutiveMembership" codeLine="81"/><text x="574.752" y="573.403" fill="#FFF" font-size="13">1</text><text x="558.415" y="638.289" fill="#FFF" font-size="13" textLength="23.036">0..*</text></g><!--link Company to ExecutiveMembership--><g class="link" data-entity-1="ent0003" data-entity-2="ent0005" id="lnk11" data-source-line="82" data-link-type="association"><path d="M459.8,561.877 C459.8,589.967 459.8,620.777 459.8,648.867" style="stroke:#E7E7E7;stroke-width:1;" fill="none" id="Company-ExecutiveMembership" codeLine="82"/><text x="458.757" y="581.691" fill="#FFF" font-size="13">1</text><text x="425.718" y="638.193" fill="#FFF" font-size="13" textLength="23.036">0..*</text></g><!--link Branding to GMN13--><g class="link" data-entity-1="ent0001" data-entity-2="ent0014" id="lnk15" data-source-line="92" data-link-type="association"><path d="M665,312.937 C665,348.927 665,378.037 665,378.037 C665,378.037 674.94,378.037 689.59,378.037" style="stroke:#E7E7E7;stroke-width:1;stroke-dasharray:7,7;" fill="none" id="Branding-GMN13"/></g><!--link Broker to GMN16--><g class="link" data-entity-1="ent0002" data-entity-2="ent0017" id="lnk18" data-source-line="108" data-link-type="association"><path d="M619.05,553.737 C619.05,571.547 619.05,585.037 619.05,585.037 C619.05,585.037 846.72,585.037 846.72,585.037 C846.72,585.037 846.72,618.217 846.72,654.117" style="stroke:#E7E7E7;stroke-width:1;stroke-dasharray:7,7;" fill="none" id="Broker-GMN16"/></g><!--link Company to GMN19--><g class="link" data-entity-1="ent0003" data-entity-2="ent0020" id="lnk21" data-source-line="123" data-link-type="association"><path d="M268.72,562.017 C268.72,600.867 268.72,637.037 268.72,637.037 C268.72,637.037 256.13,637.037 238.33,637.037" style="stroke:#E7E7E7;stroke-width:1;stroke-dasharray:7,7;" fill="none" id="Company-GMN19"/></g><?plantuml-src bLN9Rjim4BtpAmO-jh2HNeqWGEBuO1HPa3I77aVYH252aGIN84xHh-edzCSwr6RBaTFM5rEpl7dpXXf55JN1XKSZbQcWsCADhz2eDupA6Y6Ub2IeAJvP6Tg74CcJZLj7GOHdPHnwh44hGza6rdFidgFK6C9vZ5uLATAcjEPUlH6S224Qrwxs3m7y-wpa4XuUDfUYVJHOqnBkETzKdKdRoZvuFLWRuoE-A0RVjxSEvrMDVhkoslfnIY1EaDC-B4ioSUneFQKdZ2JFun8s9aGqiRKd9oVjV8oKRP4gykBdNkFscVoHjejEbSq7QhHqh3pK9rTC8Hlp_rx5bQqTckt_bTHKeRv-LpTwbFJUB6sPQbRkEjK5-NybrahnDtevPY3NDTza730-McRzIcMAweMkABCBJyeTAKPzvBYUtNitll5jNuxUbcoP90kdfoPfZOMcixD9vkE8esqCxyhiomnEvtEOdImMdsRzLLh2ReP7OtkLHy6YGyYnXx1TWkWJFugPnfdG_GZQLAGGP5BzJkbkSXTtDr_NTyrnTNDrUtxzlL7As4XGs1Xj3VPnM39x4dfodW9VLGIDm9lDH2LHYXSL4chWJPSCGZ_nKlt-PHP2t2RAEv1RP9gQ7TA2unqXnBoJWW-36YkK1n0G5HaI8O7prYax366HsvIGUK_HRv35Ad6mPM8xeO1pkG_aRE1r5karsauK9ZMb9ypFUi3ss4kpvjM-MySPp5lDm9e5sjeKcR8ofNAeFoIxwxuRSSsxC7SDtFLGJHb9Za7O4Ibl36B9TKUCyIyfbszih6_i9z8pTyqSkXduG92_DiqKIlJygPf3_aha_m9bHVaWYL4qXGo4WQh46ynw5E9U6RuDL3kDZ0KDYuxbqF6OND_y7m00?></g></svg>